<svg id="Layer_1" data-name="Layer 1" xmlns="http://www.w3.org/2000/svg" viewBox="0 0 216 108"><defs><style>.cls-1{fill:#ffb831;}.cls-2,.cls-7{fill:#fff;}.cls-3{fill:#353a3b;}.cls-4,.cls-9{fill:#fff6e5;}.cls-5{fill:#2f3234;}.cls-10,.cls-5,.cls-6,.cls-7,.cls-8,.cls-9{fill-rule:evenodd;}.cls-6{fill:#a04339;}.cls-8{fill:#f2f8fa;}.cls-10{fill:#d6dee6;}</style></defs><path class="cls-1" d="M111.11,17.08h.22a10.62,10.62,0,0,1,10.62,10.62V38.43a0,0,0,0,1,0,0H100.48a0,0,0,0,1,0,0V27.71A10.62,10.62,0,0,1,111.11,17.08Z"/><path class="cls-1" d="M102,44.51H120.3a0,0,0,0,1,0,0v.21A5.23,5.23,0,0,1,115.08,50h-7.89A5.23,5.23,0,0,1,102,44.72v-.21A0,0,0,0,1,102,44.51Z"/><path class="cls-2" d="M128,53.91a6.32,6.32,0,0,1-3.1-.83,7.46,7.46,0,0,1-2.54-2.41,11,11,0,0,1-1.2-2.46,12.45,12.45,0,0,1-9.27,4.2h-1.62A12.39,12.39,0,0,1,101,48.22c-.09.25-.19.49-.29.73s-.1.23-.16.35a8.13,8.13,0,0,1-3.27,3.78,6.28,6.28,0,0,1-3.09.83,7.05,7.05,0,0,1-5.33-2.63,10,10,0,0,1-2.19-6.43,16.43,16.43,0,0,1,2.75-8.58,34.62,34.62,0,0,1,8.48-8.86v-.09a12.47,12.47,0,0,1,8.64-11.77,2.84,2.84,0,0,0-.18-.56,1.38,1.38,0,0,0-.68-.61c-.06,0-.11.11-.16.16a3.67,3.67,0,0,1-4,1.2,4.22,4.22,0,0,1-2.59-2.1,4,4,0,0,1-.19-3.13A4.46,4.46,0,0,1,104.33,8a3.46,3.46,0,0,1,2.43,3.07c.17.06.39.13.66.24l.41.19A5.25,5.25,0,0,1,110,14q.17.48.3,1h2a10,10,0,0,1,.86-1.73,5.31,5.31,0,0,1,2.57-2h0a3.58,3.58,0,0,1,.48-.11,4.84,4.84,0,0,1,.7-.1,3.45,3.45,0,0,1,3-2.51,4.46,4.46,0,0,1,5,3.61,4,4,0,0,1-.83,3,4.27,4.27,0,0,1-3,1.52,3.67,3.67,0,0,1-3.72-2l-.12-.19a1.32,1.32,0,0,0-.79.46,2.58,2.58,0,0,0-.39.75,12.38,12.38,0,0,1,8.2,11.6,35.12,35.12,0,0,1,8.6,8.93h0a16.12,16.12,0,0,1,2.75,8.55,10,10,0,0,1-2.22,6.48A7.11,7.11,0,0,1,128,53.91Zm-26-9c.78,2.38,5,5.1,8,5.1h2.25c3,0,6.86-2.84,8-5.1Zm-1.4-6.7h21V33.88h-21Zm0-5.65h21.21l-.06-5.67a9.73,9.73,0,0,0-3-6.62A10,10,0,0,0,112,17.37h-1.75a10.11,10.11,0,0,0-6.78,2.95A9.79,9.79,0,0,0,100.58,27Zm17.89-19.93a3.51,3.51,0,0,1,.71.88c.42.66.69,1.09,1.71,1a2.1,2.1,0,0,0,1.47-.72,1.81,1.81,0,0,0,.37-1.4,2.28,2.28,0,0,0-2.63-1.74,1.3,1.3,0,0,0-1.18,1A2.6,2.6,0,0,1,118.47,12.65Zm-17.32-2.08a1.64,1.64,0,0,0-.41.65,1.82,1.82,0,0,0,.08,1.45,2,2,0,0,0,1.28,1c1,.29,1.34-.07,1.88-.63a3.54,3.54,0,0,1,.88-.72l0-.08a2.71,2.71,0,0,1-2.87-.12A2.06,2.06,0,0,1,101.15,10.57Zm2.2-.11h.14A.22.22,0,0,0,103.35,10.46Z"/><path class="cls-3" d="M132,36.81a34.42,34.42,0,0,0-8.77-9v-.51a11.33,11.33,0,0,0-8.46-10.91,5.5,5.5,0,0,1,.88-2.12,2.47,2.47,0,0,1,1.64-.89c1.18-.4.92,2.45,3.74,2.21a2.93,2.93,0,0,0,2.82-3.33,3.36,3.36,0,0,0-3.81-2.67,2.36,2.36,0,0,0-2.1,1.77c-.28.94-.31.59-1.52.81l-.41.1a4.42,4.42,0,0,0-1.92,1.51,8.91,8.91,0,0,0-1,2.3l-.13,0c-.32,0-.65,0-1,0h-1.62c-.29,0-.58,0-.86,0h0a9.55,9.55,0,0,0-.45-1.72,4.37,4.37,0,0,0-1.57-1.87c-.13-.06-.25-.13-.38-.18-1.14-.48-1.24-.13-1.32-1.11A2.38,2.38,0,0,0,104.06,9a3.36,3.36,0,0,0-4.28,1.84,2.92,2.92,0,0,0,2.07,3.83c2.72.82,3.05-2,4.12-1.4a2.55,2.55,0,0,1,1.42,1.22,4.77,4.77,0,0,1,.4,1.82h0a11.34,11.34,0,0,0-8.72,11V28a34,34,0,0,0-8.65,8.89,15.28,15.28,0,0,0-2.59,8,8.76,8.76,0,0,0,2,5.73,5.93,5.93,0,0,0,4.5,2.25,5.12,5.12,0,0,0,2.55-.69,7,7,0,0,0,2.84-3.32,2.59,2.59,0,0,0,.14-.29,12.76,12.76,0,0,0,.82-2.79A11.34,11.34,0,0,0,105.09,50a11.18,11.18,0,0,0,5.25,1.3H112A11.14,11.14,0,0,0,117.2,50a11.37,11.37,0,0,0,4.49-4.29c.08.45.18.88.29,1.28a10.48,10.48,0,0,0,1.35,3,6.35,6.35,0,0,0,2.17,2.07,5.19,5.19,0,0,0,2.57.69,6,6,0,0,0,4.55-2.26,8.84,8.84,0,0,0,2-5.78A15.16,15.16,0,0,0,132,36.81ZM102.28,10.42a1.08,1.08,0,0,1,1.22-1.05,1.23,1.23,0,0,1,1.23,1.23C104.73,11.84,102.28,11.9,102.28,10.42Zm19.23,27.65H100.79V34h20.72Zm-20.1,5.36a9.48,9.48,0,0,1-.62-3.38v-.24h20.72v.24a9.48,9.48,0,0,1-.63,3.38Zm2.18-22.85a9.54,9.54,0,0,1,6.75-2.8H112a9.59,9.59,0,0,1,9.55,9.54v5H100.79v-5A9.52,9.52,0,0,1,103.59,20.58ZM97.53,49.11A4.6,4.6,0,0,1,96,50.63a3.26,3.26,0,0,1-1.69.46,4.23,4.23,0,0,1-3.18-1.63,7,7,0,0,1-1.53-4.61,13.46,13.46,0,0,1,2.33-7.09,31.4,31.4,0,0,1,7.17-7.63v9.92a12.05,12.05,0,0,0,.15,1.81C99.19,45.32,98.48,47.68,97.53,49.11Zm21.16-2.32a9.45,9.45,0,0,1-6.73,2.8h-1.62a9.5,9.5,0,0,1-6.75-2.8,9.24,9.24,0,0,1-1.3-1.62H120A9.29,9.29,0,0,1,118.69,46.79Zm12.61,2.66a4.32,4.32,0,0,1-3.23,1.64,3.36,3.36,0,0,1-1.71-.46,5.53,5.53,0,0,1-2.26-2.78,15.4,15.4,0,0,1-1-6h0a11.23,11.23,0,0,0,.15-1.84V30a30.89,30.89,0,0,1,7.29,7.73,13.32,13.32,0,0,1,2.33,7A7.13,7.13,0,0,1,131.3,49.45Z"/><path class="cls-4" d="M122,11.76a1.09,1.09,0,0,1,1.33.92c.15,1.47-2.29,1.67-2.42.44A1.23,1.23,0,0,1,122,11.76Z"/><path class="cls-5" d="M111.17,27.72c1.71,0,2.34-.6,3.09.06s-.67,2.86-3.11,2.86-3.8-2.17-3.1-2.86,1.41-.06,3.12-.06"/><path class="cls-6" d="M112.8,29.89a3.18,3.18,0,0,1-3.33,0c0-.52,1-.8,1.66-.46.73-.34,1.65-.05,1.67.48"/><path class="cls-7" d="M111.17,27.91c1.12,0,1.74-.24,2.25-.24v0a.69.69,0,0,1-.66.71.57.57,0,0,1-.32-.09.74.74,0,0,1-.66.39.73.73,0,0,1-.6-.32.76.76,0,0,1-.61.32.73.73,0,0,1-.66-.41.61.61,0,0,1-.35.11.68.68,0,0,1-.65-.71v0a22.24,22.24,0,0,0,2.26.24"/><path class="cls-5" d="M117.13,24.85a1.8,1.8,0,1,1-1.79,1.79,1.79,1.79,0,0,1,1.79-1.79"/><path class="cls-8" d="M118,25.42a.51.51,0,0,1,.5.5.5.5,0,0,1-.5.5.5.5,0,0,1-.5-.5.5.5,0,0,1,.5-.5"/><path class="cls-5" d="M105.19,24.85a1.8,1.8,0,1,1-1.79,1.79,1.8,1.8,0,0,1,1.79-1.79"/><path class="cls-8" d="M106,25.42a.51.51,0,0,1,.5.5.5.5,0,0,1-.5.5.5.5,0,0,1-.5-.5.5.5,0,0,1,.5-.5"/><path class="cls-9" d="M118.8,23.33a.44.44,0,0,1,.45.34.33.33,0,0,1-.22.44.44.44,0,0,1-.44-.34c-.06-.22,0-.41.21-.44m-7.3-2.65c-1.62.3-2.1-1.27,0-1.73,2.57-.58,6.18,1.15,7.24,3.46.28.62-.18.84-.66.22-1.35-1.72-3.81-2.47-6.54-1.95"/><path class="cls-10" d="M126.81,37.05c-.6.52.63,2,1.32,4.38s1.71,3.21,2.31,2.7.48-2.05-.5-3.84-2.53-3.75-3.13-3.24"/><path class="cls-10" d="M92.77,45a1,1,0,0,1,.67,1,.72.72,0,0,1-.82.73,1,1,0,0,1-.67-1,.71.71,0,0,1,.82-.73m3-8.14c.75.1-1.26,1.13-2.19,5.36-.34,1.51-.29,2.27-1,2.31-.3,0-1.06-.16-.56-2.26s2.91-5.53,3.74-5.41"/><path class="cls-4" d="M103.5,9.37a1.08,1.08,0,0,0-1.22,1.05c0,1.48,2.45,1.42,2.45.18A1.23,1.23,0,0,0,103.5,9.37Z"/><path class="cls-3" d="M17.79,81.42a10.2,10.2,0,0,1,5.69-1.71,10.77,10.77,0,0,1,2.74.35,10.92,10.92,0,0,1,2.43,1,10.55,10.55,0,0,1,3.7,3.69,10.77,10.77,0,0,1,1,2.44,10.78,10.78,0,0,1,0,5.45,10.46,10.46,0,0,1-4.73,6.15,10.16,10.16,0,0,1-5.17,1.4,8.55,8.55,0,0,1-3.06-.55,11.36,11.36,0,0,1-2.66-1.38,2.55,2.55,0,0,1-.3.83,2.29,2.29,0,0,1-.54.61,2.33,2.33,0,0,1-.67.37,2.45,2.45,0,0,1-.75.12,2.19,2.19,0,0,1-.83-.16,2.05,2.05,0,0,1-.75-.46,2.21,2.21,0,0,1-.51-.76,2.79,2.79,0,0,1-.2-1.09V75.41a2.9,2.9,0,0,1,.2-1.09,2.31,2.31,0,0,1,.51-.76,2.41,2.41,0,0,1,1.58-.62,2.3,2.3,0,0,1,.86.16,2.27,2.27,0,0,1,.72.46,2.19,2.19,0,0,1,.52.76,2.9,2.9,0,0,1,.19,1.09Zm5.69,2.87a5.35,5.35,0,0,0-2.18.45,5.62,5.62,0,0,0-3,3,5.41,5.41,0,0,0,0,4.41A5.53,5.53,0,0,0,19.48,94a5.63,5.63,0,0,0,1.82,1.23,5.36,5.36,0,0,0,2.18.46,5.42,5.42,0,0,0,2.2-.46,5.74,5.74,0,0,0,3-3,5.75,5.75,0,0,0,0-4.41A5.92,5.92,0,0,0,27.5,86a5.79,5.79,0,0,0-1.82-1.21Z"/><path class="cls-3" d="M49.13,99a8.42,8.42,0,0,1-2.13.92,8.65,8.65,0,0,1-2.38.32,8.44,8.44,0,0,1-3.4-.69,9.05,9.05,0,0,1-4.69-4.69,8.44,8.44,0,0,1-.69-3.4V82A2.85,2.85,0,0,1,36,80.92a2.27,2.27,0,0,1,.52-.77,2.32,2.32,0,0,1,3.16,0,2.14,2.14,0,0,1,.52.77A2.85,2.85,0,0,1,40.42,82v9.45a4.05,4.05,0,0,0,.34,1.62,3.85,3.85,0,0,0,.91,1.33,3.8,3.8,0,0,0,1.33.91,3.89,3.89,0,0,0,1.62.34,4,4,0,0,0,1.65-.34,4,4,0,0,0,1.35-.91,4.3,4.3,0,0,0,.91-1.33,4,4,0,0,0,.33-1.62V82a2.85,2.85,0,0,1,.2-1.08,2.14,2.14,0,0,1,.52-.77,2.27,2.27,0,0,1,.72-.46,2.1,2.1,0,0,1,.82-.16,2.35,2.35,0,0,1,.87.16,2.66,2.66,0,0,1,.75.46,2.25,2.25,0,0,1,.51.77,2.85,2.85,0,0,1,.2,1.08V97.76a2.79,2.79,0,0,1-.2,1.09,2.21,2.21,0,0,1-.51.76,2.45,2.45,0,0,1-.75.46,2.35,2.35,0,0,1-.87.16A2.17,2.17,0,0,1,50,99.91Z"/><path class="cls-3" d="M69.91,82.11a7.92,7.92,0,0,1,2.76-1.81,8.78,8.78,0,0,1,3.21-.59A8,8,0,0,1,79,80.3a7.17,7.17,0,0,1,4.12,4.1,8,8,0,0,1,.59,3.13V97.76a2.8,2.8,0,0,1-.19,1.09,2.38,2.38,0,0,1-.52.76,2.23,2.23,0,0,1-.75.46,2.19,2.19,0,0,1-.83.16,2.24,2.24,0,0,1-.84-.16,2.18,2.18,0,0,1-1.26-1.22,2.8,2.8,0,0,1-.19-1.09V87.53a3.82,3.82,0,0,0-.23-1.35,3.35,3.35,0,0,0-.64-1,3.2,3.2,0,0,0-2.37-.87,3.83,3.83,0,0,0-1.72.36,3.73,3.73,0,0,0-1.25,1,4.1,4.1,0,0,0-.74,1.44,5.94,5.94,0,0,0-.25,1.76v9a2.79,2.79,0,0,1-.2,1.09,2.21,2.21,0,0,1-.51.76,2.17,2.17,0,0,1-.71.46,2.2,2.2,0,0,1-.84.16,2.41,2.41,0,0,1-1.6-.62,2.12,2.12,0,0,1-.53-.76,2.8,2.8,0,0,1-.19-1.09V87.53a3.61,3.61,0,0,0-.24-1.35,3,3,0,0,0-.64-1,2.88,2.88,0,0,0-1-.65,3.79,3.79,0,0,0-1.33-.22,4.21,4.21,0,0,0-1.71.34,3.77,3.77,0,0,0-1.24.94A4.24,4.24,0,0,0,60.42,87a5.73,5.73,0,0,0-.26,1.72v9.06a2.79,2.79,0,0,1-.2,1.09,2.21,2.21,0,0,1-.51.76,2.25,2.25,0,0,1-.73.46,2.3,2.3,0,0,1-.86.16,2.19,2.19,0,0,1-.83-.16,2.14,2.14,0,0,1-.75-.46,2.21,2.21,0,0,1-.51-.76,2.79,2.79,0,0,1-.2-1.09V82a2.85,2.85,0,0,1,.2-1.08,2.25,2.25,0,0,1,.51-.77,2.3,2.3,0,0,1,.75-.46,2.19,2.19,0,0,1,.83-.16,2.49,2.49,0,0,1,1.18.3,2.12,2.12,0,0,1,.87.93,8.68,8.68,0,0,1,4.21-1.05,8.45,8.45,0,0,1,3.16.59Z"/><path class="cls-3" d="M90.39,81.42a10.16,10.16,0,0,1,2.68-1.27,10.34,10.34,0,0,1,3-.44,9.84,9.84,0,0,1,5.17,1.39A10.28,10.28,0,0,1,106,87.23a10.49,10.49,0,0,1,0,5.45,10.07,10.07,0,0,1-1,2.45,10.55,10.55,0,0,1-3.69,3.7,10.24,10.24,0,0,1-5.17,1.4A8.51,8.51,0,0,1,93,99.68a11.36,11.36,0,0,1-2.66-1.38,2.35,2.35,0,0,1-.31.83,2.27,2.27,0,0,1-.53.61,2.38,2.38,0,0,1-.68.37,2.34,2.34,0,0,1-.74.12,2.24,2.24,0,0,1-.84-.16A2.18,2.18,0,0,1,86,98.85a2.8,2.8,0,0,1-.19-1.09V75.41A2.9,2.9,0,0,1,86,74.32a2.19,2.19,0,0,1,.52-.76A2.33,2.33,0,0,1,89,73.1a2.32,2.32,0,0,1,.73.46,2.49,2.49,0,0,1,.52.76,2.9,2.9,0,0,1,.19,1.09Zm5.69,2.87a5.43,5.43,0,0,0-2.19.45A5.53,5.53,0,0,0,92.08,86a5.8,5.8,0,0,0-1.23,1.81,5.51,5.51,0,0,0,0,4.41A5.72,5.72,0,0,0,92.08,94a5.58,5.58,0,0,0,1.81,1.23,5.47,5.47,0,0,0,4.39,0A5.8,5.8,0,0,0,100.09,94a5.66,5.66,0,0,0,1.21-1.79,5.63,5.63,0,0,0,0-4.41,5.59,5.59,0,0,0-3-3Z"/><path class="cls-3" d="M113,97.76a2.79,2.79,0,0,1-.2,1.09,2.21,2.21,0,0,1-.51.76,2.15,2.15,0,0,1-.73.46,2.25,2.25,0,0,1-.85.16,2.2,2.2,0,0,1-.84-.16,2.18,2.18,0,0,1-1.26-1.22,2.8,2.8,0,0,1-.19-1.09V75.41a2.9,2.9,0,0,1,.19-1.09,2.19,2.19,0,0,1,.52-.76,2.25,2.25,0,0,1,.74-.46,2.2,2.2,0,0,1,.84-.16,2.25,2.25,0,0,1,.85.16,2.15,2.15,0,0,1,1.24,1.22,2.9,2.9,0,0,1,.2,1.09Z"/><path class="cls-3" d="M133.94,96.63a9.87,9.87,0,0,1-3.66,2.7,11.43,11.43,0,0,1-4.49.9,11,11,0,0,1-4.14-.78,10.44,10.44,0,0,1-3.38-2.13A10,10,0,0,1,116,94.07a10.27,10.27,0,0,1,.55-9.28,10.48,10.48,0,0,1,1.62-2.08,10.16,10.16,0,0,1,2.08-1.61,9.91,9.91,0,0,1,5.17-1.39,9.8,9.8,0,0,1,3.71.71,10.32,10.32,0,0,1,3.09,2,10.85,10.85,0,0,1,2.19,2.95,9.87,9.87,0,0,1,1,3.66,3.39,3.39,0,0,1-.12.88,3.18,3.18,0,0,1-.41.8,2.18,2.18,0,0,1-.68.6,2.06,2.06,0,0,1-1,.23H119.89a5,5,0,0,0,.85,1.78,5.33,5.33,0,0,0,1.37,1.31,5.76,5.76,0,0,0,1.72.8,7.08,7.08,0,0,0,2,.27,6.79,6.79,0,0,0,2.56-.5,5.37,5.37,0,0,0,2.09-1.51,2.86,2.86,0,0,1,.91-.71,2.46,2.46,0,0,1,1-.2,2.26,2.26,0,0,1,.87.18,2.72,2.72,0,0,1,.73.48,2.43,2.43,0,0,1,.51.71,2.14,2.14,0,0,1,.18.86,2.43,2.43,0,0,1-.16.87Zm-3.75-9.72A5.66,5.66,0,0,0,128.13,85a5.73,5.73,0,0,0-5.49,0,5.71,5.71,0,0,0-2,1.92Z"/><path class="cls-3" d="M142.09,81.42a10.16,10.16,0,0,1,2.68-1.27,10.34,10.34,0,0,1,3-.44A9.84,9.84,0,0,1,153,81.1,10.43,10.43,0,0,1,155,82.71a10.82,10.82,0,0,1,1.61,2.08,10.34,10.34,0,0,1,1,2.44,10.49,10.49,0,0,1,0,5.45,10.07,10.07,0,0,1-1,2.45A10.82,10.82,0,0,1,155,97.21,10.48,10.48,0,0,1,153,98.83a10.24,10.24,0,0,1-5.17,1.4,8.51,8.51,0,0,1-3.06-.55,11.63,11.63,0,0,1-2.67-1.38,2.34,2.34,0,0,1-.3.83,2.27,2.27,0,0,1-.53.61,2.38,2.38,0,0,1-.68.37,2.34,2.34,0,0,1-.74.12,2.24,2.24,0,0,1-.84-.16,2.18,2.18,0,0,1-1.26-1.22,2.8,2.8,0,0,1-.19-1.09V75.41a2.9,2.9,0,0,1,.19-1.09,2.19,2.19,0,0,1,.52-.76,2.33,2.33,0,0,1,2.43-.46,2.15,2.15,0,0,1,1.24,1.22,2.9,2.9,0,0,1,.2,1.09Zm5.69,2.87a5.43,5.43,0,0,0-2.19.45A5.53,5.53,0,0,0,143.78,86a5.8,5.8,0,0,0-1.23,1.81,5.51,5.51,0,0,0,0,4.41A5.72,5.72,0,0,0,143.78,94a5.58,5.58,0,0,0,1.81,1.23,5.47,5.47,0,0,0,4.39,0,5.76,5.76,0,0,0,3-3,5.63,5.63,0,0,0,0-4.41A5.92,5.92,0,0,0,151.79,86,5.75,5.75,0,0,0,150,84.74Z"/><path class="cls-3" d="M179,96.63a9.87,9.87,0,0,1-3.66,2.7,11.43,11.43,0,0,1-4.49.9,11,11,0,0,1-4.14-.78,10.33,10.33,0,0,1-3.38-2.13,10.13,10.13,0,0,1-2.77-10.09,9.57,9.57,0,0,1,1-2.44,10.48,10.48,0,0,1,1.62-2.08,10.37,10.37,0,0,1,2.07-1.61,10.76,10.76,0,0,1,2.46-1,10.51,10.51,0,0,1,2.72-.35,9.8,9.8,0,0,1,3.71.71,10.32,10.32,0,0,1,3.09,2,10.85,10.85,0,0,1,2.19,2.95,9.87,9.87,0,0,1,1,3.66,3.39,3.39,0,0,1-.12.88,3.18,3.18,0,0,1-.41.8,2.18,2.18,0,0,1-.68.6,2.06,2.06,0,0,1-1,.23H164.9a4.82,4.82,0,0,0,.85,1.78,5.17,5.17,0,0,0,1.37,1.31,5.76,5.76,0,0,0,1.72.8,7.08,7.08,0,0,0,2,.27,6.82,6.82,0,0,0,2.56-.5,5.37,5.37,0,0,0,2.09-1.51,2.86,2.86,0,0,1,.91-.71,2.46,2.46,0,0,1,1-.2,2.26,2.26,0,0,1,.87.18,2.72,2.72,0,0,1,.73.48,2.43,2.43,0,0,1,.51.71,2.14,2.14,0,0,1,.18.86,2.43,2.43,0,0,1-.16.87Zm-3.75-9.72A5.66,5.66,0,0,0,173.14,85a5.73,5.73,0,0,0-5.49,0,5.71,5.71,0,0,0-2,1.92Z"/><path class="cls-3" d="M201.33,96.63a9.87,9.87,0,0,1-3.66,2.7,11.43,11.43,0,0,1-4.49.9,11,11,0,0,1-4.14-.78,10.44,10.44,0,0,1-3.38-2.13,10.22,10.22,0,0,1-1.74-12.53,10.48,10.48,0,0,1,1.62-2.08,10.37,10.37,0,0,1,2.07-1.61,10.76,10.76,0,0,1,2.46-1,10.51,10.51,0,0,1,2.72-.35,9.8,9.8,0,0,1,3.71.71,10.32,10.32,0,0,1,3.09,2,10.85,10.85,0,0,1,2.19,2.95,9.87,9.87,0,0,1,1,3.66,3.39,3.39,0,0,1-.12.88,3.18,3.18,0,0,1-.41.8,2.18,2.18,0,0,1-.68.6,2.06,2.06,0,0,1-1,.23H187.28a5,5,0,0,0,.85,1.78,5.33,5.33,0,0,0,1.37,1.31,5.76,5.76,0,0,0,1.72.8,7.08,7.08,0,0,0,2,.27,6.79,6.79,0,0,0,2.56-.5,5.37,5.37,0,0,0,2.09-1.51,2.86,2.86,0,0,1,.91-.71,2.46,2.46,0,0,1,1-.2,2.26,2.26,0,0,1,.87.18,2.72,2.72,0,0,1,.73.48,2.43,2.43,0,0,1,.51.71A2.14,2.14,0,0,1,202,95a2.43,2.43,0,0,1-.16.87Zm-3.75-9.72A5.66,5.66,0,0,0,195.52,85,5.73,5.73,0,0,0,190,85a5.71,5.71,0,0,0-2,1.92Z"/><path class="cls-3" d="M179,77.85a9.75,9.75,0,0,1-1.62-.14l.38-2.17a7.65,7.65,0,0,0,3.8-.32l.7,2.08A10.05,10.05,0,0,1,179,77.85Zm19.9-2-2.06-.78a12.62,12.62,0,0,0,.68-3.94l2.2,0A14.71,14.71,0,0,1,198.91,75.87Zm-26-.27a9.22,9.22,0,0,1-2.78-4.08l2.08-.69a7,7,0,0,0,2.13,3.1Zm13.34-1.37-1.9-1.1a14.36,14.36,0,0,0,1.39-3.81l2.14.49A16,16,0,0,1,186.28,74.23Zm-65.46-1.06a13.63,13.63,0,0,1-4.58-1.25l1-2a11.68,11.68,0,0,0,3.85,1Zm4.61,0-.2-2.19a26.11,26.11,0,0,0,4.15-.73l.55,2.13A27.85,27.85,0,0,1,125.43,73.16Zm8.82-2.31-.9-2a28.81,28.81,0,0,0,3.72-2l1.18,1.85A31.34,31.34,0,0,1,134.25,70.85ZM112.5,68.77a12.66,12.66,0,0,1-1.91-4.39l2.14-.52a10.41,10.41,0,0,0,1.56,3.63Zm84.27-1.42a7.3,7.3,0,0,0-2.46-2.88l1.27-1.8a9.48,9.48,0,0,1,3.18,3.75Zm-24.54-.12-2.07-.74a8,8,0,0,1,3.1-3.92l1.26,1.8A6,6,0,0,0,172.23,67.23ZM141.91,66l-1.38-1.71c1-.83,2.09-1.76,3.24-2.85l1.51,1.61C144.09,64.2,143,65.16,141.91,66Zm46.66-.74-2.19-.15c.05-.73.07-1.46.07-2.19s0-1.39-.07-2.06l.26,0,.07-.89a23.82,23.82,0,0,1,4.54.73l-.58,2.13a16.31,16.31,0,0,0-2-.43c0,.18,0,.36,0,.54C188.66,63.73,188.63,64.52,188.57,65.29Zm-10.4-2.52-.56-2.12a23.5,23.5,0,0,1,4.56-.69l.13,2.19A21.38,21.38,0,0,0,178.17,62.77ZM148.45,60l-1.57-1.54L148,57.26l2-2,1.55,1.55-1.94,2ZM110,59.81c0-.67,0-1.33,0-2s0-1.12,0-1.64v-.86l2.2,0v.87c0,.51,0,1,0,1.61s0,1.23,0,1.86Zm75.75-3.08a14.69,14.69,0,0,0-1.47-3.8l1.9-1.1a16.88,16.88,0,0,1,1.71,4.37Zm-31.08-2.89-1.46-1.64c.58-.52,1.13-1,1.68-1.43s1.25-1,1.88-1.39L158,51.2c-.59.41-1.18.84-1.74,1.29S155.23,53.35,154.67,53.84Zm27-3.69a18.67,18.67,0,0,0-3.69-1.9l.79-2.06a22,22,0,0,1,4.12,2.12Zm-19.94-1-.93-2a26,26,0,0,1,4.32-1.56l.56,2.13A24.58,24.58,0,0,0,161.68,49.12Zm12.23-1.92a20.56,20.56,0,0,0-4.16-.17l-.13-2.19a22.11,22.11,0,0,1,4.61.19Z"/></svg>